<?xml version="1.0" encoding="utf-8"?>
<!-- Generator: Adobe Illustrator 26.0.1, SVG Export Plug-In . SVG Version: 6.00 Build 0)  -->
<svg version="1.1" id="Layer_1" xmlns="http://www.w3.org/2000/svg" xmlns:xlink="http://www.w3.org/1999/xlink" x="0px" y="0px"
	 viewBox="0 0 170 85" style="enable-background:new 0 0 170 85;" xml:space="preserve">
<style type="text/css">
	.st0{display:none;}
	.st1{display:inline;}
	.st2{fill-rule:evenodd;clip-rule:evenodd;fill:#FFFFFF;}
	.st3{filter:url(#Adobe_OpacityMaskFilter);}
	
		.st4{mask:url(#f67ydovxib_00000114782008886306618060000016707883024303829120_);fill-rule:evenodd;clip-rule:evenodd;fill:#FFFFFF;}
	.st5{filter:url(#Adobe_OpacityMaskFilter_00000135663196560933683160000007283749803653125002_);}
	
		.st6{mask:url(#lo9is9lfde_00000080168327810647194200000002076066275750101158_);fill-rule:evenodd;clip-rule:evenodd;fill:url(#SVGID_1_);}
	.st7{filter:url(#Adobe_OpacityMaskFilter_00000138542039114260006280000009693370093929887664_);}
	
		.st8{mask:url(#rupg72qvgh_00000103233837905325393450000001706741985758023296_);fill-rule:evenodd;clip-rule:evenodd;fill:url(#SVGID_00000134949806634100098400000014479388910932514230_);}
	.st9{filter:url(#Adobe_OpacityMaskFilter_00000021832071650845464220000013016133399602343589_);}
	
		.st10{mask:url(#_x31_svu9b7qtk_00000146458438689054555910000009170328815654632883_);fill-rule:evenodd;clip-rule:evenodd;fill:url(#SVGID_00000171715324743372874480000014348032861490408348_);}
	.st11{filter:url(#Adobe_OpacityMaskFilter_00000073681602153884581770000013731177034377628801_);}
	
		.st12{mask:url(#p56z9u69hn_00000025439226700158959600000010593487430817947273_);fill-rule:evenodd;clip-rule:evenodd;fill:url(#SVGID_00000163070176615758823460000016882400201966693508_);}
	.st13{fill:#AE95DA;}
	.st14{fill:#FFFFFF;}
</style>
<g class="st0">
	<g class="st1">
		<g>
			<g>
				<path class="st2" d="M40.3,44.2h-6.2V51h-3.3v4.9h3.2v3.7h0V72c0,2.3,1,3.3,3.3,3.3h0.3c3.1,0,5.6-2.5,5.6-5.6h-1.9
					c-0.7,0-1.1-0.4-1.1-1.1V55.9H46V51h-5.7V44.2z M56.7,68.7V48.9l0,0v-4.7h-6.2V72c0,1.8,1.5,3.3,3.3,3.3h0.3
					c3.1,0,5.6-2.5,5.6-5.6h-1.9C57.2,69.8,56.7,69.3,56.7,68.7"/>
				<g transform="translate(-166 -24) translate(166 24.237) translate(0 43.763) translate(0 6.241)">
					<defs>
						<filter id="Adobe_OpacityMaskFilter" filterUnits="userSpaceOnUse" x="0" y="0.2" width="28.7" height="24.9">
							<feColorMatrix  type="matrix" values="1 0 0 0 0  0 1 0 0 0  0 0 1 0 0  0 0 0 1 0"/>
						</filter>
					</defs>
					
						<mask maskUnits="userSpaceOnUse" x="0" y="0.2" width="28.7" height="24.9" id="f67ydovxib_00000114782008886306618060000016707883024303829120_">
						<g class="st3">
							<path id="shvl1ia04a_00000080207742930436618540000007383519141862873756_" class="st2" d="M0,0.2h28.7v24.9H0V0.2z"/>
						</g>
					</mask>
					<path class="st4" d="M19.4,19.4l-2-2c-1.3,1.3-3,2-4.9,2c-3.8,0-6.9-3.1-6.9-6.9c0-3.8,3.1-6.9,6.9-6.9c3.7,0,6.7,2.9,6.9,6.5
						C19.4,12.3,19.4,19.4,19.4,19.4z M26.8,19.5c-0.6,0-1.1-0.5-1.1-1.1V0.8h-6.2v1.5c-2-1.3-4.4-2.1-6.9-2.1
						C5.5,0.2-0.1,5.8,0,12.8C0.1,19.5,5.6,24.9,12.4,25c2.7,0,5.1-0.8,7.2-2.1c0.3,1.6,1.3,2.3,3.3,2.3h0.3c3.1,0,5.6-2.5,5.6-5.6
						H26.8L26.8,19.5z"/>
				</g>
				<path class="st2" d="M77.3,69.7c-1.9,0-3.7-0.8-4.9-2l-2,2v-6.4c0,0,0-1.3,0.1-1.5c0.5-3.3,3.4-5.9,6.9-5.9
					c3.8,0,6.9,3.1,6.9,6.9C84.2,66.6,81.1,69.7,77.3,69.7 M89.8,62.6c-0.1-6.7-5.7-12.2-12.4-12.2c-2.9,0-5.6,0.9-7.7,2.6
					c-0.2-1.1-1.1-2-3.1-2H61v4.9h2c0.7,0,1.1,0.3,1.1,1.1v27c1.7,0,3.3-0.7,4.4-1.8c1.1-1.1,1.8-2.7,1.8-4.4v-3.3
					c0-0.6,0-1.2,0-1.5c2,1.4,4.5,2.2,7.1,2.2C84.3,75.2,89.9,69.6,89.8,62.6"/>
			</g>
			<g transform="translate(-166 -24) translate(166 24.237) translate(61 .763)">
				<defs>
					
						<filter id="Adobe_OpacityMaskFilter_00000178893998176057671680000007045670854578056097_" filterUnits="userSpaceOnUse" x="0.2" y="0.1" width="15.8" height="15.8">
						<feColorMatrix  type="matrix" values="1 0 0 0 0  0 1 0 0 0  0 0 1 0 0  0 0 0 1 0"/>
					</filter>
				</defs>
				
					<mask maskUnits="userSpaceOnUse" x="0.2" y="0.1" width="15.8" height="15.8" id="lo9is9lfde_00000080168327810647194200000002076066275750101158_">
					<g style="filter:url(#Adobe_OpacityMaskFilter_00000178893998176057671680000007045670854578056097_);">
						<path id="_x37_vn3q65d6c_00000061450150382117989670000001762888919407122574_" class="st2" d="M10.7,0.1v5.3H5.4V0.1
							c-2.9,0-5.3,2.4-5.3,5.3v5.3h10.5v5.2H16V0.1H10.7z"/>
					</g>
				</mask>
				
					<linearGradient id="SVGID_1_" gradientUnits="userSpaceOnUse" x1="-143.2114" y1="300.4195" x2="-146.1545" y2="297.6699" gradientTransform="matrix(15.815 0 0 -15.816 2298.22 4737.314)">
					<stop  offset="0" style="stop-color:#AC83BA"/>
					<stop  offset="1" style="stop-color:#7969A3"/>
				</linearGradient>
				<path class="st6" d="M10.7,0.1v5.3H5.4V0.1c-2.9,0-5.3,2.4-5.3,5.3v5.3h10.5v5.2H16V0.1H10.7z"/>
			</g>
			<g transform="translate(-166 -24) translate(166 24.237) translate(82 .763)">
				<defs>
					
						<filter id="Adobe_OpacityMaskFilter_00000177451311992906989380000017918583200066725505_" filterUnits="userSpaceOnUse" x="0.2" y="0.1" width="26.6" height="12.9">
						<feColorMatrix  type="matrix" values="1 0 0 0 0  0 1 0 0 0  0 0 1 0 0  0 0 0 1 0"/>
					</filter>
				</defs>
				
					<mask maskUnits="userSpaceOnUse" x="0.2" y="0.1" width="26.6" height="12.9" id="rupg72qvgh_00000103233837905325393450000001706741985758023296_">
					<g style="filter:url(#Adobe_OpacityMaskFilter_00000177451311992906989380000017918583200066725505_);">
						<path id="p1ybda60xf_00000131364708492640450330000001460808587108176288_" class="st2" d="M0.2,0.1v5.2h21.3V13h5.3V5h0
							c-0.1-2.8-2.4-5-5.2-5H0.2z"/>
					</g>
				</mask>
				
					<linearGradient id="SVGID_00000016056020636590754100000005171478673417621144_" gradientUnits="userSpaceOnUse" x1="-167.7465" y1="295.8795" x2="-169.5017" y2="295.098" gradientTransform="matrix(26.572 0 0 -12.877 4480.5859 3814.4683)">
					<stop  offset="0" style="stop-color:#AC83BA"/>
					<stop  offset="1" style="stop-color:#7969A3"/>
				</linearGradient>
				
					<path style="mask:url(#rupg72qvgh_00000103233837905325393450000001706741985758023296_);fill-rule:evenodd;clip-rule:evenodd;fill:url(#SVGID_00000016056020636590754100000005171478673417621144_);" d="
					M0.2,0.1v5.2h21.3V13h5.3V5h0c-0.1-2.8-2.4-5-5.2-5H0.2z"/>
			</g>
			<g transform="translate(-166 -24) translate(166 24.237) translate(60 11.763)">
				<defs>
					
						<filter id="Adobe_OpacityMaskFilter_00000005966796204497208360000013137003387948596640_" filterUnits="userSpaceOnUse" x="0.2" y="0.1" width="48.6" height="23.7">
						<feColorMatrix  type="matrix" values="1 0 0 0 0  0 1 0 0 0  0 0 1 0 0  0 0 0 1 0"/>
					</filter>
				</defs>
				
					<mask maskUnits="userSpaceOnUse" x="0.2" y="0.1" width="48.6" height="23.7" id="_x31_svu9b7qtk_00000146458438689054555910000009170328815654632883_">
					<g style="filter:url(#Adobe_OpacityMaskFilter_00000005966796204497208360000013137003387948596640_);">
						<path id="_x32_83oq7pg3i_00000179606803216235199680000007930425548327293829_" class="st2" d="M32.5,0.1v18.4h-5.4V0.1h-5.4
							v18.4h-5.4v-7.8h-5.4v7.8H5.5v-13H0.2v18.3h43.3c2.9,0,5.2-2.2,5.3-5h0v-11H37.9V0.1H32.5z M37.9,18.5h5.5V13h-5.5V18.5z"/>
					</g>
				</mask>
				
					<linearGradient id="SVGID_00000092458022650006475510000015799598823126346640_" gradientUnits="userSpaceOnUse" x1="-147.131" y1="292.9887" x2="-148.1085" y2="292.5501" gradientTransform="matrix(48.611 0 0 -23.691 7201.8101 6949.4282)">
					<stop  offset="0" style="stop-color:#AC83BA"/>
					<stop  offset="1" style="stop-color:#7969A3"/>
				</linearGradient>
				
					<path style="mask:url(#_x31_svu9b7qtk_00000146458438689054555910000009170328815654632883_);fill-rule:evenodd;clip-rule:evenodd;fill:url(#SVGID_00000092458022650006475510000015799598823126346640_);" d="
					M32.5,0.1v18.4h-5.4V0.1h-5.4v18.4h-5.4v-7.8h-5.4v7.8H5.5v-13H0.2v18.3h43.3c2.9,0,5.2-2.2,5.3-5h0v-11H37.9V0.1H32.5z
					 M37.9,18.5h5.5V13h-5.5V18.5z"/>
			</g>
			<g transform="translate(-166 -24) translate(166 24.237) translate(60 38.763)">
				<defs>
					
						<filter id="Adobe_OpacityMaskFilter_00000021114026266902317190000017257734970958592655_" filterUnits="userSpaceOnUse" x="0.2" y="0.3" width="5.6" height="5.6">
						<feColorMatrix  type="matrix" values="1 0 0 0 0  0 1 0 0 0  0 0 1 0 0  0 0 0 1 0"/>
					</filter>
				</defs>
				
					<mask maskUnits="userSpaceOnUse" x="0.2" y="0.3" width="5.6" height="5.6" id="p56z9u69hn_00000025439226700158959600000010593487430817947273_">
					<g style="filter:url(#Adobe_OpacityMaskFilter_00000021114026266902317190000017257734970958592655_);">
						<path id="e6xjc4zpzl_00000165935010474974360120000012523967334976171144_" class="st2" d="M5.8,0.3H0.2v5.6h1.2
							c2.4,0,4.4-2,4.4-4.4V0.3L5.8,0.3z"/>
					</g>
				</mask>
				
					<linearGradient id="SVGID_00000066517197093498458580000016370256045562935466_" gradientUnits="userSpaceOnUse" x1="-125.4004" y1="242.6875" x2="-134.2262" y2="234.4406" gradientTransform="matrix(5.633 0 0 -5.637 755.1171 1327.095)">
					<stop  offset="0" style="stop-color:#AC83BA"/>
					<stop  offset="1" style="stop-color:#7969A3"/>
				</linearGradient>
				
					<path style="mask:url(#p56z9u69hn_00000025439226700158959600000010593487430817947273_);fill-rule:evenodd;clip-rule:evenodd;fill:url(#SVGID_00000066517197093498458580000016370256045562935466_);" d="
					M5.8,0.3H0.2v5.6h1.2c2.4,0,4.4-2,4.4-4.4V0.3L5.8,0.3z"/>
			</g>
			<g>
				<path class="st2" d="M100.9,67l-0.6-1.4L99.8,67H100.9z M99.9,64.6h0.9l1.8,4.2h-1l-0.4-0.9h-1.8l-0.4,0.9h-0.9L99.9,64.6
					L99.9,64.6z M105,68c0.2,0,0.4,0,0.5-0.1c0.2-0.1,0.3-0.1,0.4-0.3c0.1-0.1,0.2-0.2,0.3-0.4c0.1-0.2,0.1-0.3,0.1-0.5v0
					c0-0.2,0-0.4-0.1-0.5c-0.1-0.2-0.1-0.3-0.3-0.4c-0.1-0.1-0.2-0.2-0.4-0.3c-0.2-0.1-0.3-0.1-0.5-0.1h-0.7V68H105z M103.4,64.6
					h1.6c0.3,0,0.6,0.1,0.9,0.2c0.3,0.1,0.5,0.3,0.7,0.4c0.2,0.2,0.4,0.4,0.5,0.7c0.1,0.3,0.2,0.5,0.2,0.8v0c0,0.3-0.1,0.6-0.2,0.8
					c-0.1,0.3-0.3,0.5-0.5,0.7c-0.2,0.2-0.4,0.3-0.7,0.4c-0.3,0.1-0.6,0.2-0.9,0.2h-1.6V64.6z M107.9,64.6h1l1.1,3l1.1-3h1l-1.7,4.2
					h-0.8L107.9,64.6z M115.3,67l-0.6-1.4l-0.6,1.4H115.3z M114.3,64.6h0.9l1.8,4.2h-1l-0.4-0.9h-1.8l-0.4,0.9h-0.9L114.3,64.6
					L114.3,64.6z M117.7,64.6h0.9l2,2.6v-2.6h0.9v4.2h-0.8l-2-2.7v2.7h-0.9V64.6z M124.6,68.9c-0.3,0-0.6-0.1-0.9-0.2
					c-0.3-0.1-0.5-0.3-0.7-0.5c-0.2-0.2-0.3-0.4-0.4-0.7c-0.1-0.3-0.2-0.5-0.2-0.8v0c0-0.3,0.1-0.6,0.2-0.8c0.1-0.3,0.3-0.5,0.5-0.7
					c0.2-0.2,0.4-0.4,0.7-0.5s0.6-0.2,0.9-0.2c0.2,0,0.4,0,0.5,0c0.2,0,0.3,0.1,0.4,0.1c0.1,0.1,0.3,0.1,0.4,0.2
					c0.1,0.1,0.2,0.2,0.3,0.3l-0.6,0.7c-0.2-0.1-0.3-0.3-0.5-0.3c-0.2-0.1-0.4-0.1-0.6-0.1c-0.2,0-0.3,0-0.5,0.1
					c-0.2,0.1-0.3,0.2-0.4,0.3c-0.1,0.1-0.2,0.3-0.3,0.4c-0.1,0.2-0.1,0.3-0.1,0.5v0c0,0.2,0,0.4,0.1,0.5c0.1,0.2,0.1,0.3,0.2,0.4
					c0.1,0.1,0.2,0.2,0.4,0.3c0.2,0.1,0.3,0.1,0.5,0.1c0.2,0,0.4,0,0.6-0.1c0.2-0.1,0.3-0.2,0.5-0.4l0.6,0.6
					c-0.1,0.1-0.2,0.2-0.3,0.3c-0.1,0.1-0.2,0.2-0.4,0.2c-0.1,0.1-0.3,0.1-0.5,0.2C125,68.9,124.8,68.9,124.6,68.9 M127.2,64.6h3.2
					v0.8h-2.3v0.9h2v0.8h-2V68h2.3v0.8h-3.2V64.6z M139.5,65.4h-1.3v-0.9h3.5v0.9h-1.3v3.4h-0.9V65.4z M144.4,66.6
					c0.2,0,0.4-0.1,0.5-0.2c0.1-0.1,0.2-0.3,0.2-0.4v0c0-0.2-0.1-0.3-0.2-0.4c-0.1-0.1-0.3-0.2-0.5-0.2h-0.9v1.2L144.4,66.6
					L144.4,66.6z M142.6,64.6h1.9c0.5,0,0.9,0.1,1.2,0.4c0.2,0.2,0.4,0.6,0.4,1v0c0,0.3-0.1,0.6-0.2,0.8c-0.2,0.2-0.4,0.4-0.7,0.5
					l1,1.5h-1.1l-0.9-1.3h-0.7v1.3h-0.9C142.6,68.8,142.6,64.6,142.6,64.6z M149.5,67l-0.6-1.4l-0.6,1.4C148.3,67,149.5,67,149.5,67
					z M148.5,64.6h0.9l1.8,4.2h-1l-0.4-0.9H148l-0.4,0.9h-0.9L148.5,64.6L148.5,64.6z M153.6,68c0.2,0,0.4,0,0.5-0.1
					c0.2-0.1,0.3-0.1,0.4-0.3c0.1-0.1,0.2-0.2,0.3-0.4c0.1-0.2,0.1-0.3,0.1-0.5v0c0-0.2,0-0.4-0.1-0.5c-0.1-0.2-0.1-0.3-0.3-0.4
					c-0.1-0.1-0.2-0.2-0.4-0.3c-0.2-0.1-0.3-0.1-0.5-0.1h-0.7V68C152.9,68,153.6,68,153.6,68z M151.9,64.6h1.6
					c0.3,0,0.6,0.1,0.9,0.2c0.3,0.1,0.5,0.3,0.7,0.4c0.2,0.2,0.3,0.4,0.5,0.7c0.1,0.3,0.2,0.5,0.2,0.8v0c0,0.3-0.1,0.6-0.2,0.8
					c-0.1,0.3-0.3,0.5-0.5,0.7c-0.2,0.2-0.4,0.3-0.7,0.4c-0.3,0.1-0.6,0.2-0.9,0.2h-1.6V64.6z M156.8,64.6h3.2v0.8h-2.3v0.9h2v0.8
					h-2V68h2.3v0.8h-3.2V64.6z M133.3,68c0.2,0,0.4,0,0.5-0.1c0.2-0.1,0.3-0.1,0.4-0.3c0.1-0.1,0.2-0.2,0.3-0.4
					c0.1-0.2,0.1-0.3,0.1-0.5v0c0-0.2,0-0.4-0.1-0.5c-0.1-0.2-0.1-0.3-0.3-0.4c-0.1-0.1-0.2-0.2-0.4-0.3c-0.2-0.1-0.3-0.1-0.5-0.1
					h-0.7V68H133.3z M131.6,64.6h1.6c0.3,0,0.6,0.1,0.9,0.2c0.3,0.1,0.5,0.3,0.7,0.4c0.2,0.2,0.4,0.4,0.5,0.7
					c0.1,0.3,0.2,0.5,0.2,0.8v0c0,0.3-0.1,0.6-0.2,0.8c-0.1,0.3-0.3,0.5-0.5,0.7c-0.2,0.2-0.4,0.3-0.7,0.4c-0.3,0.1-0.6,0.2-0.9,0.2
					h-1.6V64.6z M98.1,71h0.9v3.4h2.1v0.8h-3V71z M104,74.4c0.2,0,0.4,0,0.5-0.1c0.2-0.1,0.3-0.2,0.4-0.3c0.1-0.1,0.2-0.3,0.3-0.4
					c0.1-0.2,0.1-0.3,0.1-0.5v0c0-0.2,0-0.4-0.1-0.5c-0.1-0.2-0.1-0.3-0.3-0.4c-0.1-0.1-0.2-0.2-0.4-0.3c-0.2-0.1-0.3-0.1-0.5-0.1
					c-0.2,0-0.4,0-0.5,0.1c-0.2,0.1-0.3,0.2-0.4,0.3c-0.1,0.1-0.2,0.3-0.3,0.4c-0.1,0.2-0.1,0.3-0.1,0.5v0c0,0.2,0,0.4,0.1,0.5
					c0.1,0.2,0.2,0.3,0.3,0.4c0.1,0.1,0.2,0.2,0.4,0.3S103.9,74.4,104,74.4 M104,75.3c-0.3,0-0.6-0.1-0.9-0.2
					c-0.3-0.1-0.5-0.3-0.7-0.5c-0.2-0.2-0.4-0.4-0.5-0.7c-0.1-0.3-0.2-0.5-0.2-0.8v0c0-0.3,0.1-0.6,0.2-0.8s0.3-0.5,0.5-0.7
					c0.2-0.2,0.4-0.4,0.7-0.5c0.3-0.1,0.6-0.2,0.9-0.2c0.3,0,0.6,0.1,0.9,0.2c0.3,0.1,0.5,0.3,0.7,0.5c0.2,0.2,0.4,0.4,0.5,0.7
					s0.2,0.5,0.2,0.8v0c0,0.3-0.1,0.6-0.2,0.8c-0.1,0.3-0.3,0.5-0.5,0.7c-0.2,0.2-0.4,0.4-0.7,0.5C104.7,75.2,104.4,75.3,104,75.3
					 M109.3,75.3c-0.3,0-0.6-0.1-0.9-0.2c-0.3-0.1-0.5-0.3-0.7-0.5c-0.2-0.2-0.3-0.4-0.5-0.7c-0.1-0.3-0.2-0.6-0.2-0.9v0
					c0-0.3,0.1-0.6,0.2-0.8c0.1-0.3,0.3-0.5,0.5-0.7c0.2-0.2,0.4-0.4,0.7-0.5c0.3-0.1,0.6-0.2,0.9-0.2c0.2,0,0.4,0,0.5,0
					c0.2,0,0.3,0.1,0.4,0.1c0.1,0,0.3,0.1,0.4,0.2c0.1,0.1,0.2,0.2,0.3,0.2l-0.6,0.7c-0.1-0.1-0.2-0.1-0.2-0.2
					c-0.1-0.1-0.2-0.1-0.2-0.1c-0.1,0-0.2-0.1-0.3-0.1c-0.1,0-0.2,0-0.3,0c-0.2,0-0.3,0-0.5,0.1c-0.1,0.1-0.3,0.2-0.4,0.3
					c-0.1,0.1-0.2,0.3-0.3,0.4c-0.1,0.2-0.1,0.3-0.1,0.5v0c0,0.2,0,0.4,0.1,0.5c0.1,0.2,0.2,0.3,0.3,0.4c0.1,0.1,0.2,0.2,0.4,0.3
					c0.2,0.1,0.3,0.1,0.5,0.1c0.3,0,0.6-0.1,0.9-0.3v-0.6h-0.9v-0.8h1.8v1.8c-0.2,0.2-0.5,0.3-0.8,0.5
					C110,75.2,109.6,75.3,109.3,75.3 M112.1,75.2h0.9V71h-0.9V75.2z M115.8,75.3c-0.3,0-0.6-0.1-0.9-0.2c-0.3-0.1-0.6-0.3-0.8-0.5
					l0.5-0.7c0.2,0.2,0.4,0.3,0.6,0.4c0.2,0.1,0.4,0.1,0.7,0.1c0.2,0,0.3,0,0.4-0.1c0.1-0.1,0.2-0.2,0.2-0.3v0c0-0.1,0-0.1,0-0.2
					c0,0-0.1-0.1-0.1-0.1c-0.1,0-0.1-0.1-0.3-0.1c-0.1,0-0.3-0.1-0.4-0.1c-0.2-0.1-0.4-0.1-0.6-0.2c-0.2-0.1-0.3-0.1-0.4-0.2
					c-0.1-0.1-0.2-0.2-0.3-0.4c-0.1-0.1-0.1-0.3-0.1-0.5v0c0-0.2,0-0.4,0.1-0.5c0.1-0.2,0.2-0.3,0.3-0.4c0.1-0.1,0.3-0.2,0.5-0.3
					c0.2-0.1,0.4-0.1,0.6-0.1c0.3,0,0.6,0,0.8,0.1c0.3,0.1,0.5,0.2,0.7,0.4l-0.5,0.7c-0.2-0.1-0.4-0.2-0.6-0.3
					c-0.2-0.1-0.4-0.1-0.5-0.1s-0.3,0-0.4,0.1c-0.1,0.1-0.1,0.2-0.1,0.3v0c0,0.1,0,0.1,0,0.2c0,0,0.1,0.1,0.1,0.1
					c0.1,0,0.2,0.1,0.3,0.1c0.1,0,0.3,0.1,0.5,0.1c0.2,0.1,0.4,0.1,0.6,0.2c0.2,0.1,0.3,0.2,0.4,0.3c0.1,0.1,0.2,0.2,0.3,0.3
					c0.1,0.1,0.1,0.3,0.1,0.5v0c0,0.2,0,0.4-0.1,0.6c-0.1,0.2-0.2,0.3-0.3,0.4c-0.1,0.1-0.3,0.2-0.5,0.3
					C116.2,75.3,116,75.3,115.8,75.3 M119.2,71.9h-1.3V71h3.5v0.9h-1.3v3.4h-0.9V71.9z M122.3,75.2h0.9V71h-0.9V75.2z M126.4,75.3
					c-0.3,0-0.6-0.1-0.9-0.2c-0.3-0.1-0.5-0.3-0.7-0.5c-0.2-0.2-0.3-0.4-0.5-0.7s-0.2-0.5-0.2-0.8v0c0-0.3,0.1-0.6,0.2-0.8
					c0.1-0.3,0.3-0.5,0.4-0.7c0.2-0.2,0.4-0.4,0.7-0.5c0.3-0.1,0.6-0.2,0.9-0.2c0.2,0,0.4,0,0.5,0c0.2,0,0.3,0.1,0.4,0.1
					c0.1,0.1,0.3,0.1,0.4,0.2c0.1,0.1,0.2,0.2,0.3,0.3l-0.6,0.7c-0.2-0.1-0.3-0.3-0.5-0.3c-0.2-0.1-0.4-0.1-0.6-0.1
					c-0.2,0-0.3,0-0.5,0.1c-0.2,0.1-0.3,0.2-0.4,0.3c-0.1,0.1-0.2,0.3-0.3,0.4c-0.1,0.2-0.1,0.3-0.1,0.5v0c0,0.2,0,0.4,0.1,0.5
					c0.1,0.2,0.1,0.3,0.2,0.4c0.1,0.1,0.2,0.2,0.4,0.3c0.2,0.1,0.3,0.1,0.5,0.1c0.2,0,0.4,0,0.6-0.1c0.2-0.1,0.3-0.2,0.5-0.4
					l0.6,0.6c-0.1,0.1-0.2,0.2-0.3,0.3c-0.1,0.1-0.2,0.2-0.4,0.2c-0.1,0.1-0.3,0.1-0.5,0.2C126.8,75.3,126.6,75.3,126.4,75.3
					 M130.5,75.3c-0.3,0-0.6-0.1-0.9-0.2s-0.6-0.3-0.8-0.5l0.5-0.7c0.2,0.2,0.4,0.3,0.6,0.4c0.2,0.1,0.4,0.1,0.7,0.1
					c0.2,0,0.3,0,0.4-0.1c0.1-0.1,0.2-0.2,0.2-0.3v0c0-0.1,0-0.1,0-0.2c0,0-0.1-0.1-0.1-0.1c-0.1,0-0.1-0.1-0.3-0.1
					c-0.1,0-0.3-0.1-0.4-0.1c-0.2-0.1-0.4-0.1-0.6-0.2c-0.2-0.1-0.3-0.1-0.4-0.2c-0.1-0.1-0.2-0.2-0.3-0.4c-0.1-0.1-0.1-0.3-0.1-0.5
					v0c0-0.2,0-0.4,0.1-0.5c0.1-0.2,0.2-0.3,0.3-0.4c0.1-0.1,0.3-0.2,0.5-0.3c0.2-0.1,0.4-0.1,0.6-0.1c0.3,0,0.6,0,0.9,0.1
					c0.3,0.1,0.5,0.2,0.7,0.4l-0.5,0.7c-0.2-0.1-0.4-0.2-0.6-0.3c-0.2-0.1-0.4-0.1-0.5-0.1c-0.2,0-0.3,0-0.4,0.1
					c-0.1,0.1-0.1,0.2-0.1,0.3v0c0,0.1,0,0.1,0,0.2c0,0,0.1,0.1,0.1,0.1c0.1,0,0.2,0.1,0.3,0.1c0.1,0,0.3,0.1,0.4,0.1
					c0.2,0.1,0.4,0.1,0.6,0.2c0.2,0.1,0.3,0.2,0.4,0.3c0.1,0.1,0.2,0.2,0.3,0.3c0.1,0.1,0.1,0.3,0.1,0.5v0c0,0.2,0,0.4-0.1,0.6
					c-0.1,0.2-0.2,0.3-0.3,0.4s-0.3,0.2-0.5,0.3C130.9,75.3,130.7,75.3,130.5,75.3 M136.5,73.1c0.2,0,0.4-0.1,0.5-0.2
					c0.1-0.1,0.2-0.3,0.2-0.5v0c0-0.2-0.1-0.4-0.2-0.5c-0.1-0.1-0.3-0.2-0.5-0.2h-0.7v1.3L136.5,73.1L136.5,73.1z M134.8,71h1.7
					c0.3,0,0.5,0,0.7,0.1c0.2,0.1,0.4,0.2,0.5,0.3c0.1,0.1,0.2,0.3,0.3,0.5c0.1,0.2,0.1,0.4,0.1,0.6v0c0,0.2,0,0.5-0.1,0.6
					c-0.1,0.2-0.2,0.3-0.4,0.5c-0.2,0.1-0.3,0.2-0.5,0.3c-0.2,0.1-0.4,0.1-0.7,0.1h-0.7v1.3h-0.9V71L134.8,71z M139,71h0.9v3.4h2.1
					v0.8h-3V71z M145.3,73.5l-0.6-1.4l-0.6,1.4H145.3z M144.3,71h0.9l1.8,4.2h-1l-0.4-0.9h-1.8l-0.4,0.9h-0.9L144.3,71L144.3,71z
					 M148.7,71.9h-1.3V71h3.5v0.9h-1.3v3.4h-0.9V71.9z M151.8,71h3.2v0.8h-2.3v0.9h2v0.8h-2v1.6h-0.9V71z M157.9,74.4
					c0.2,0,0.4,0,0.5-0.1c0.2-0.1,0.3-0.2,0.4-0.3c0.1-0.1,0.2-0.3,0.3-0.4s0.1-0.3,0.1-0.5v0c0-0.2,0-0.4-0.1-0.5
					c-0.1-0.2-0.1-0.3-0.3-0.4c-0.1-0.1-0.2-0.2-0.4-0.3c-0.2-0.1-0.3-0.1-0.5-0.1c-0.2,0-0.4,0-0.5,0.1c-0.2,0.1-0.3,0.2-0.4,0.3
					c-0.1,0.1-0.2,0.3-0.3,0.4c-0.1,0.2-0.1,0.3-0.1,0.5v0c0,0.2,0,0.4,0.1,0.5c0.1,0.2,0.1,0.3,0.3,0.4c0.1,0.1,0.2,0.2,0.4,0.3
					S157.7,74.4,157.9,74.4 M157.9,75.3c-0.3,0-0.6-0.1-0.9-0.2c-0.3-0.1-0.5-0.3-0.7-0.5c-0.2-0.2-0.4-0.4-0.5-0.7
					c-0.1-0.3-0.2-0.5-0.2-0.8v0c0-0.3,0.1-0.6,0.2-0.8s0.3-0.5,0.5-0.7c0.2-0.2,0.4-0.4,0.7-0.5c0.3-0.1,0.6-0.2,0.9-0.2
					c0.3,0,0.6,0.1,0.9,0.2c0.3,0.1,0.5,0.3,0.7,0.5c0.2,0.2,0.4,0.4,0.5,0.7c0.1,0.3,0.2,0.5,0.2,0.8v0c0,0.3-0.1,0.6-0.2,0.8
					c-0.1,0.3-0.3,0.5-0.5,0.7c-0.2,0.2-0.4,0.4-0.7,0.5C158.5,75.2,158.2,75.3,157.9,75.3 M163,73.1c0.2,0,0.4-0.1,0.5-0.2
					c0.1-0.1,0.2-0.3,0.2-0.4v0c0-0.2-0.1-0.4-0.2-0.5c-0.1-0.1-0.3-0.2-0.5-0.2H162v1.2L163,73.1L163,73.1z M161.1,71h1.9
					c0.5,0,0.9,0.1,1.2,0.4c0.2,0.2,0.4,0.6,0.4,1v0c0,0.3-0.1,0.6-0.2,0.8c-0.2,0.2-0.4,0.4-0.7,0.5l1,1.5h-1.1l-0.9-1.3H162v1.3
					h-0.9V71L161.1,71z M165.6,71h1l1.1,1.8l1.1-1.8h1v4.2h-0.9v-2.8l-1.2,1.8h0l-1.2-1.8v2.7h-0.9V71z"/>
			</g>
		</g>
	</g>
</g>
<g id="Layer_2_00000135664531741678871580000006996383443957354418_">
	<g id="Artwork">
		<path class="st13" d="M71.9,16.9h5.4V0.8h-5.4v5.4h-5.4V0.8c-3,0-5.4,2.4-5.4,5.3c0,0,0,0,0,0v5.4h10.7V16.9z M109.5,5.9
			c-0.1-2.9-2.5-5.1-5.3-5.1H82.6v5.3h21.6v8h5.4L109.5,5.9L109.5,5.9z M98.7,11.5h-5.4v18.7h-5.4V11.6h-5.3v18.6h-5.4v-7.9h-5.3
			v7.9h-5.4V17.1h-5.4v18.5h43.1c2.8,0,5.2-2.2,5.3-5l0,0v-11H98.7L98.7,11.5z M104.2,24.7v5.5h-5.5v-5.5L104.2,24.7z M61.2,44.2
			h2.6c1.5,0,2.8-1.2,2.8-2.7c0,0,0,0,0,0v-2.6h-5.4V44.2z"/>
		<path class="st14" d="M28.9,69.9H27c-0.1,0-0.3,0-0.4-0.1c-0.4-0.2-0.7-0.6-0.7-1v-4.3l0,0V51.1h-6.2v1.5
			C13.9,48.8,6.2,50.3,2.4,56S0.1,69.5,5.8,73.3c4.2,2.8,9.7,2.8,14-0.1l0,0h0.1c0.4,1.4,1.7,2.3,3.2,2.3h0.3
			C26.4,75.6,28.9,73.1,28.9,69.9C28.9,70,28.9,70,28.9,69.9L28.9,69.9z M19.7,69.8l-2-2c-2.7,2.7-7.1,2.7-9.8,0
			c-2.7-2.7-2.7-7.1,0-9.8s7.1-2.7,9.8,0c1.2,1.2,1.9,2.8,2,4.5V69.8z M56.8,68.9V49l0,0v-4.8h-6.2v28c0,1.8,1.5,3.3,3.3,3.3h0h0.3
			c3.1,0,5.6-2.5,5.6-5.6h-2C57.3,69.9,56.8,69.5,56.8,68.9z M40.5,49L40.5,49v-4.8h-6.3v6.9H31V56h3.2v16.2c0,1.8,1.5,3.3,3.3,3.3
			h0h0.3c3.1,0,5.6-2.5,5.6-5.6h-2c-0.6,0-1.1-0.5-1.1-1.1V56h5.7v-4.9h-5.6V49z M77.5,50.5c-2.7,0-5.4,0.8-7.6,2.5
			c-0.1-0.4-0.3-0.7-0.6-1c-0.2-0.2-0.4-0.4-0.7-0.6c-0.4-0.2-0.9-0.4-1.4-0.4h-0.6h-5.5V56h2c0.5-0.1,1,0.3,1.1,0.9
			c0,0.1,0,0.1,0,0.2v27.1h0.3c1.6,0,3.1-0.7,4.2-1.8c0.4-0.4,0.8-0.9,1.1-1.5c0.3-0.6,0.5-1.1,0.6-1.8c0.1-0.5,0.1-1.1,0.1-1.6
			v-4.2c5.7,3.8,13.5,2.3,17.3-3.4c3.8-5.7,2.3-13.5-3.4-17.3C82.3,51.2,79.9,50.5,77.5,50.5L77.5,50.5z M77.4,69.9
			c-1.8,0-3.6-0.7-4.9-2l-2,2v-6.4c0,0,0-1.3,0.1-1.5c0.5-3.8,4.1-6.4,7.8-5.9c3.8,0.5,6.4,4.1,5.9,7.8
			C83.8,67.3,80.9,69.9,77.4,69.9L77.4,69.9z"/>
		<path class="st14" d="M104.5,71.7c-1.2,0-2.2,1.1-2.2,2.3c0,1.2,1.1,2.2,2.3,2.2c1.2,0,2.2-1,2.2-2.3c0.1-1.2-0.9-2.2-2.1-2.2
			C104.7,71.7,104.6,71.7,104.5,71.7z M104.5,75.2c-0.7,0.1-1.4-0.5-1.4-1.2c-0.1-0.7,0.5-1.4,1.2-1.4s1.4,0.5,1.4,1.2
			c0,0,0,0.1,0,0.1c0.1,0.7-0.4,1.3-1.1,1.3C104.6,75.2,104.5,75.2,104.5,75.2z M109.4,74.3h1.1v0.8c-0.2,0-0.4,0.1-0.7,0.1
			c-0.7,0-1.2-0.5-1.3-1.1c0-0.1,0-0.1,0-0.2c0-0.7,0.5-1.3,1.2-1.3c0,0,0.1,0,0.1,0c0.3,0,0.7,0,1,0.1l0.1-0.9
			c-0.4-0.1-0.8-0.1-1.2-0.1c-1.2-0.1-2.3,0.7-2.4,2c0,0.1,0,0.2,0,0.3c0,1.2,0.9,2.2,2.1,2.3c0.1,0,0.2,0,0.3,0
			c0.6,0,1.1-0.1,1.6-0.4v-2.3h-2.1L109.4,74.3z M112.1,65.2c-0.3,1.2-0.7,2.4-1.2,3.6c-0.5-1.1-0.9-2.3-1.2-3.6h-1.1
			c0.4,1.5,0.9,2.9,1.6,4.3h1.4c0.7-1.4,1.2-2.8,1.6-4.3H112.1z M116.6,73.5l-0.7-0.2c-0.4-0.1-0.5-0.3-0.5-0.4s0.2-0.3,0.6-0.3
			c0.5,0,0.9,0.1,1.3,0.2l0.2-0.9c-0.5-0.2-0.9-0.2-1.4-0.2c-1.1,0-1.7,0.4-1.7,1.2s0.5,1.1,1.2,1.3l0.6,0.2
			c0.3,0.1,0.4,0.2,0.4,0.4s-0.2,0.4-0.7,0.4c-0.5,0-1-0.2-1.5-0.4l-0.2,1.1c0.5,0.2,1.1,0.3,1.6,0.3c1.3,0,1.8-0.6,1.8-1.4
			C117.7,74.1,117.3,73.8,116.6,73.5L116.6,73.5z M105.7,65.2H104v4.3h1.7c1.2,0.2,2.2-0.7,2.4-1.8c0-0.1,0-0.2,0-0.4
			C108.1,66.1,107.3,65.2,105.7,65.2L105.7,65.2z M105.7,68.7H105v-2.5h0.6c0.6-0.1,1.2,0.4,1.3,1c0,0.1,0,0.1,0,0.2
			c0.1,0.7-0.4,1.2-1.1,1.3C105.8,68.7,105.8,68.7,105.7,68.7L105.7,68.7z M112.4,76.1h1.1v-4.3h-1.1V76.1z M157.8,67.4
			c0-1.2-0.8-2.1-2.4-2.1h-1.7v4.3h1.7c1.2,0.2,2.3-0.6,2.4-1.8C157.8,67.6,157.8,67.5,157.8,67.4L157.8,67.4z M154.8,66.1h0.6
			c0.6-0.1,1.2,0.4,1.3,1c0,0.1,0,0.1,0,0.2c0.1,0.7-0.4,1.2-1.1,1.3c-0.1,0-0.2,0-0.2,0h-0.6V66.1z M144.9,68.3h0.8
			c0.3,0.4,0.6,0.8,0.8,1.3h1.2c-0.2-0.6-0.6-1.1-1-1.6c0.5-0.2,0.9-0.7,0.9-1.3c0-1-0.6-1.4-1.8-1.4h-1.9v4.3h1.1L144.9,68.3z
			 M144.9,66.1h0.7c0.5,0,0.8,0.2,0.8,0.5s-0.2,0.7-0.8,0.7h-0.7L144.9,66.1z M162.1,68.7h-2.1v-0.9h1.8v-0.9h-1.8v-0.8h2.1v-0.9
			h-3.1v4.3h3.2L162.1,68.7z M140.7,69.6h1.1v-3.4h1.3v-0.9h-3.7v0.9h1.3L140.7,69.6z M99.7,71.8h-1.1v4.3h3.1v-0.9h-2L99.7,71.8z
			 M101.6,65.2h-1.4c-0.7,1.4-1.2,2.8-1.6,4.3h1.1c0.1-0.3,0.1-0.5,0.2-0.8h2c0.1,0.3,0.2,0.6,0.2,0.8h1.1
			C102.8,68.1,102.2,66.6,101.6,65.2L101.6,65.2z M100.2,67.9c0.2-0.6,0.4-1.3,0.7-1.9c0.3,0.6,0.5,1.2,0.7,1.9H100.2z M119.7,66.7
			l1.9,2.8h0.9v-4.3h-1.1v2.5l-1.7-2.5h-1v4.3h1.1L119.7,66.7z M136.7,71.8h-1.9v4.3h1.1v-1.2h0.7c1.1,0,2-0.6,2-1.6
			S137.9,71.8,136.7,71.8L136.7,71.8z M136.6,74h-0.7v-1.4h0.8c0.5,0,0.8,0.2,0.8,0.6C137.5,73.7,137.2,74,136.6,74L136.6,74z
			 M152.9,69.6c-0.4-1.5-0.9-2.9-1.6-4.3h-1.4c-0.7,1.4-1.2,2.8-1.6,4.3h1.1c0.1-0.3,0.1-0.5,0.2-0.8h2c0.1,0.3,0.1,0.6,0.2,0.8
			H152.9z M149.9,67.9c0.2-0.6,0.4-1.3,0.7-1.9c0.3,0.6,0.5,1.2,0.7,1.9H149.9z M151.6,76.1h1.1v-1.5h1.7v-0.9h-1.7v-1.1h2v-0.9
			h-3.1L151.6,76.1z M157.5,71.7c-1.2,0-2.2,1.1-2.2,2.3c0,1.2,1.1,2.2,2.3,2.2c1.2,0,2.2-1,2.2-2.3c0.1-1.2-0.9-2.2-2.1-2.2
			C157.7,71.7,157.6,71.7,157.5,71.7L157.5,71.7z M157.5,75.2c-0.7,0.1-1.4-0.5-1.4-1.2c-0.1-0.7,0.5-1.4,1.2-1.4
			c0.7-0.1,1.4,0.5,1.4,1.2c0,0,0,0.1,0,0.1c0.1,0.7-0.4,1.3-1.1,1.3C157.6,75.2,157.6,75.2,157.5,75.2L157.5,75.2z M147.3,72.6h1.3
			v3.4h1.1v-3.4h1.3v-0.9h-3.7L147.3,72.6z M166.7,69.6c0.5,0,1-0.1,1.4-0.5l0.4,0.4h1.2l-1.1-1c0.3-0.5,0.4-1,0.5-1.5h-1
			c0,0.3-0.1,0.6-0.2,0.8l-0.8-0.8c-0.3-0.3-0.4-0.5-0.4-0.7c0-0.2,0.3-0.4,0.7-0.4c0.3,0,0.6,0,0.9,0.1l0.2-0.8
			c-0.3-0.1-0.6-0.2-1-0.2c-1.1,0-1.7,0.4-1.7,1.2c0,0.3,0.1,0.5,0.2,0.7c-0.5,0.2-0.9,0.7-0.9,1.2C165,69.1,165.7,69.6,166.7,69.6
			L166.7,69.6z M166.4,67.7c0.3,0.3,0.7,0.6,1,1c-0.2,0.1-0.4,0.2-0.6,0.2c-0.5,0-0.8-0.3-0.8-0.6C166,67.9,166.2,67.7,166.4,67.7
			L166.4,67.7z M164.3,73.2c0-1-0.7-1.4-1.8-1.4h-1.9v4.3h1.1v-1.3h0.8c0.3,0.4,0.6,0.8,0.8,1.3h1.2c-0.2-0.6-0.6-1.1-1-1.6
			C164,74.3,164.3,73.8,164.3,73.2L164.3,73.2z M162.3,74h-0.7v-1.3h0.7c0.5,0,0.8,0.2,0.8,0.5S163,73.9,162.3,74L162.3,74z
			 M168.5,71.8c-0.3,0.9-0.7,1.7-1.1,2.4c-0.4-0.8-0.8-1.6-1.1-2.4h-1.1l-0.1,4.3h1v-2.5c0.3,0.6,0.6,1.2,0.9,1.8h0.6
			c0.4-0.6,0.7-1.2,1-1.8v2.5h1l-0.1-4.3L168.5,71.8z M144.4,71.8c-0.7,1.4-1.2,2.8-1.6,4.3h1.1c0.1-0.3,0.1-0.5,0.2-0.8h2
			c0.1,0.3,0.1,0.5,0.2,0.8h1.2c-0.4-1.5-0.9-2.9-1.6-4.3H144.4z M144.4,74.4c0.2-0.6,0.4-1.3,0.7-1.9c0.3,0.6,0.5,1.2,0.7,1.9
			H144.4z M114.9,65.3c-0.7,1.4-1.2,2.8-1.6,4.3h1.1c0.1-0.3,0.1-0.5,0.2-0.8h2c0.1,0.3,0.1,0.6,0.2,0.8h1.1
			c-0.4-1.5-0.9-2.9-1.6-4.3H114.9z M114.9,67.9c0.2-0.6,0.4-1.3,0.7-1.9c0.3,0.6,0.5,1.2,0.7,1.9H114.9z M122.4,76.1h1.1v-4.3h-1.1
			V76.1z M140.4,71.8h-1.1v4.3h3.1v-0.9h-2L140.4,71.8z M118,72.6h1.3v3.4h1.1v-3.4h1.3v-0.9H118V72.6z M126.5,75.2
			c-0.7,0-1.2-0.5-1.2-1.1c0-0.1,0-0.1,0-0.2c0-0.7,0.5-1.3,1.2-1.3c0.1,0,0.1,0,0.2,0c0.4,0,0.7,0,1.1,0.2l0.1-0.9
			c-0.4-0.1-0.8-0.2-1.2-0.2c-1.2-0.1-2.3,0.7-2.4,2c0,0.1,0,0.2,0,0.3c-0.1,1.2,0.9,2.2,2,2.3c0.1,0,0.2,0,0.3,0
			c0.5,0,1-0.1,1.5-0.3v-1C127.6,75.1,127.1,75.3,126.5,75.2L126.5,75.2z M127.2,69.3v-1c-0.4,0.3-0.9,0.4-1.4,0.4
			c-0.7,0-1.2-0.5-1.2-1.1c0-0.1,0-0.1,0-0.2c0-0.7,0.5-1.3,1.2-1.3c0,0,0.1,0,0.1,0c0.4,0,0.7,0,1.1,0.2l0.1-0.9
			c-0.4-0.1-0.8-0.2-1.3-0.2c-1.2-0.1-2.3,0.8-2.4,2c0,0.1,0,0.2,0,0.3c-0.1,1.2,0.9,2.2,2.1,2.2c0.1,0,0.2,0,0.3,0
			C126.3,69.7,126.8,69.6,127.2,69.3L127.2,69.3z M136.6,67.4c0-1.2-0.8-2.1-2.4-2.1h-1.7v4.3h1.7c1.2,0.2,2.3-0.6,2.4-1.8
			C136.6,67.6,136.6,67.5,136.6,67.4L136.6,67.4z M134.2,68.7h-0.6v-2.5h0.6c0.6-0.1,1.2,0.4,1.3,1c0,0.1,0,0.1,0,0.2
			c0.1,0.7-0.4,1.2-1.1,1.3C134.3,68.7,134.3,68.7,134.2,68.7L134.2,68.7z M131.5,68.7h-2.1v-0.9h1.8V67h-1.8v-0.8h2v-0.9h-3.1v4.3
			h3.2V68.7z M131,73.6l-0.7-0.2c-0.4-0.1-0.5-0.3-0.5-0.4c0-0.2,0.2-0.3,0.6-0.3c0.5,0,0.9,0.1,1.3,0.2l0.2-0.9
			c-0.5-0.2-0.9-0.2-1.4-0.2c-1.1,0-1.7,0.4-1.7,1.2s0.5,1.1,1.2,1.3l0.7,0.2c0.3,0.1,0.4,0.2,0.4,0.4s-0.2,0.4-0.7,0.4
			c-0.5,0-1-0.2-1.5-0.4l-0.2,1.1c0.5,0.2,1.1,0.3,1.6,0.3c1.3,0,1.8-0.6,1.8-1.4C132.1,74.1,131.8,73.8,131,73.6L131,73.6z"/>
	</g>
</g>
</svg>
