<svg xmlns="http://www.w3.org/2000/svg" xmlns:xlink="http://www.w3.org/1999/xlink" width="792" height="234" viewBox="0 0 792 234">
  <defs>
    <clipPath id="clip-path">
      <rect id="Rectangle_243014" data-name="Rectangle 243014" width="792" height="234" transform="translate(-1082 2935)" fill="#fff" stroke="#707070" stroke-width="1" opacity="0.5"/>
    </clipPath>
  </defs>
  <g id="Mask_Group_370695" data-name="Mask Group 370695" transform="translate(1082 -2935)" clip-path="url(#clip-path)">
    <g id="milahi-logo_3" data-name="milahi-logo 3" transform="translate(-1203.03 2542.58)">
      <path id="Path_215829" data-name="Path 215829" d="M520.48,522.21c0-4.36-3.18-8.25-8.84-8.25s-8.84,3.89-8.84,8.25,3.3,8.25,8.84,8.25S520.48,526.57,520.48,522.21Z" fill="#2e3955"/>
      <path id="Path_215830" data-name="Path 215830" d="M540.4,522.21c0-4.36-3.3-8.25-8.84-8.25s-8.84,3.89-8.84,8.25,3.18,8.25,8.84,8.25S540.4,526.57,540.4,522.21Z" fill="#2e3955"/>
      <path id="Path_215831" data-name="Path 215831" d="M607.11,484.26H734.65a2.013,2.013,0,0,0,2.12-1.65,132.342,132.342,0,0,0,3.65-28.53c0-23.1-13.67-35.24-40.43-35.24a76.877,76.877,0,0,0-26.88,4.6,1.97,1.97,0,0,0-1.42,2.24c1.06,9.31,3.65,14.15,10.61,14.15,3.89,0,10.61-1.53,17.68-1.53,11.55,0,21.34,4.12,21.34,16.86a60.35,60.35,0,0,1-1.06,9.67h-126V422.51a1.74,1.74,0,0,0-1.89-1.89H569.74c-19.45,0-29.82,6.6-29.82,28.76,0,2.95.24,12.14.24,16.15,0,14.14-3.89,19.33-18.27,19.33s-18.74-4.72-18.74-21.57V453.15a1.74,1.74,0,0,0-1.89-1.89H485.94a1.74,1.74,0,0,0-1.89,1.89v8.84c0,30.88,14.38,42.32,37.6,42.32s37.6-10.14,37.6-40.43V449.97c0-7.07,2.59-9.9,9.78-9.9h6.13v42.32a1.74,1.74,0,0,0,1.89,1.89h30.06Z" fill="#2e3955"/>
      <path id="Path_215832" data-name="Path 215832" d="M878.69,431.8c-15.44,0-29.11,8.49-33.12,23.46l-.24.71c-2.24,6.72-2.95,8.84-11.43,8.84h-3.06c-8.49,0-11.43-2.83-11.43-9.9V444.77l.59-50.45a1.726,1.726,0,0,0-2-1.89c-3.06.24-6.25.59-8.01.83-6.37,1.06-9.55,4.36-9.43,10.73l.47,50.92c.12,7.78-4.24,9.9-11.55,9.9h-.94c-6.37-41.96-7.07-45.74-8.96-56.7a1.636,1.636,0,0,0-2-1.53c-2.71.12-6.01.59-8.6.94-4.71.71-8.25,3.65-7.07,10.61,2.83,16.03,4.12,21.34,8.96,46.68H755.31a1.74,1.74,0,0,0-1.89,1.89v15.68a1.74,1.74,0,0,0,1.89,1.89h34.18c10.49,0,18.04-2.12,22.99-7.43,2.83,5.42,8.25,7.43,18.04,7.43h3.77c6.6,0,11.2-.71,14.38-2.83,6.01,10.14,17.45,15.79,30.06,15.79,18.39,0,34.3-11.91,34.3-32.65s-15.91-32.77-34.3-32.77Zm0,45.97c-11.08,0-15.21-6.13-15.21-13.2s4.12-13.32,15.21-13.32,15.21,6.25,15.21,13.32S889.77,477.77,878.69,477.77Z" fill="#2e3955"/>
      <path id="Path_215833" data-name="Path 215833" d="M479.7,611.74h15.68a1.686,1.686,0,0,0,1.89-1.89l-.24-44.56a351.911,351.911,0,0,0,19.92,32.89,2.548,2.548,0,0,0,2.24,1.18h5.66a2.548,2.548,0,0,0,2.24-1.18,349.308,349.308,0,0,0,19.92-32.89l-.24,44.56a1.686,1.686,0,0,0,1.89,1.89h15.68a1.686,1.686,0,0,0,1.89-1.89l-1.77-78.74a1.686,1.686,0,0,0-1.89-1.89H548.54a2.312,2.312,0,0,0-2.24,1.41c-7.66,16.38-16.15,31.47-24.28,45.38-8.13-13.91-16.62-29-24.28-45.38a2.312,2.312,0,0,0-2.24-1.41H481.47a1.686,1.686,0,0,0-1.89,1.89l-1.77,78.74a1.686,1.686,0,0,0,1.89,1.89Z" fill="#2e3955"/>
      <path id="Path_215834" data-name="Path 215834" d="M586.84,529a1.8,1.8,0,0,0-1.77,2v78.86a1.74,1.74,0,0,0,1.89,1.89h15.68a1.74,1.74,0,0,0,1.89-1.89V541.61c0-9.55-4.12-12.97-12.02-12.97a41.358,41.358,0,0,0-5.66.35Z" fill="#2e3955"/>
      <path id="Path_215835" data-name="Path 215835" d="M682.91,609.86v-13.2a1.74,1.74,0,0,0-1.89-1.89H642.83V531.12a1.74,1.74,0,0,0-1.89-1.89H625.26a1.74,1.74,0,0,0-1.89,1.89v78.74a1.74,1.74,0,0,0,1.89,1.89h55.75a1.74,1.74,0,0,0,1.89-1.89Z" fill="#2e3955"/>
      <path id="Path_215836" data-name="Path 215836" d="M723.69,529a2.534,2.534,0,0,0-2.12,1.42c-15.32,24.99-24.75,51.98-32.18,79.21a1.539,1.539,0,0,0,1.65,2.12h16.62a1.826,1.826,0,0,0,2-1.65c1.06-4.12,2.12-8.25,3.3-12.38h38.19c1.18,4.13,2.24,8.25,3.3,12.38a1.832,1.832,0,0,0,2,1.65h16.62a1.541,1.541,0,0,0,1.65-2.12c-7.54-27.23-16.86-54.1-32.18-79.09a2.428,2.428,0,0,0-2.12-1.53,66.045,66.045,0,0,0-16.74,0Zm22.64,52.8H717.8a241.38,241.38,0,0,1,14.26-34.3,241.39,241.39,0,0,1,14.26,34.3Z" fill="#2e3955"/>
      <path id="Path_215837" data-name="Path 215837" d="M794.54,528.64a41.358,41.358,0,0,0-5.66.35,1.8,1.8,0,0,0-1.77,2v78.86a1.74,1.74,0,0,0,1.89,1.89h15.68a1.74,1.74,0,0,0,1.89-1.89V578.73h36.78v31.12a1.74,1.74,0,0,0,1.89,1.89h15.68a1.74,1.74,0,0,0,1.89-1.89V531.11a1.74,1.74,0,0,0-1.89-1.89H845.24a1.74,1.74,0,0,0-1.89,1.89v30.65H806.57V541.6c0-9.55-4.12-12.97-12.02-12.97Z" fill="#2e3955"/>
      <path id="Path_215838" data-name="Path 215838" d="M901.09,541.61c0-9.55-4.12-12.97-12.02-12.97a41.358,41.358,0,0,0-5.66.35,1.8,1.8,0,0,0-1.77,2v78.86a1.74,1.74,0,0,0,1.89,1.89h15.68a1.74,1.74,0,0,0,1.89-1.89V541.6Z" fill="#2e3955"/>
      <path id="Path_215839" data-name="Path 215839" d="M211.81,519.13v.02a67.839,67.839,0,0,0,19.99,48.16l48.16-48.16-48.18-48.18a67.845,67.845,0,0,0-19.97,48.17Z" fill="#32bcb8"/>
      <path id="Path_215840" data-name="Path 215840" d="M170.81,411.05l28.59,28.59-.37.4a109.55,109.55,0,0,0-29.1,74.33v.25a109.1,109.1,0,0,0,26.52,71.36l-28.66,28.66a149.316,149.316,0,0,1-38.33-100.26v-.24h0A149.7,149.7,0,0,1,170.8,411.05m218.32.01a150.059,150.059,0,0,1,3.04,203.59L363.5,585.99a109.693,109.693,0,0,0-2.6-145.93l-.37-.4,28.59-28.59M237.61,477.85l36.4,36.4.14.14-.12.12-41.78,41.28a59.2,59.2,0,0,1-12-35.88v-.19h0a59.247,59.247,0,0,1,17.26-41.76l.1-.1m-66.94-78.88-3.05,3.05h0l-.01.01-3.04,3.04.14.14a158.085,158.085,0,0,0-43.68,109.14v.01a158.277,158.277,0,0,0,46.6,112.34l40.52-40.52a101.215,101.215,0,0,1-29.8-71.82v-.01a101.017,101.017,0,0,1,26.88-68.62l26.28,26.28a67.845,67.845,0,0,0-19.7,47.87v.02a67.839,67.839,0,0,0,19.99,48.16l48.16-47.59,74.72-74.72a101.017,101.017,0,0,1,26.88,68.62h0a101.2,101.2,0,0,1-29.78,71.83l40.52,40.52a158.3,158.3,0,0,0,46.58-112.34h0a158.063,158.063,0,0,0-43.69-109.15l.14-.14-6.1-6.1L279.94,508.29l-109.3-109.3h0Z" fill="#2e3955"/>
    </g>
  </g>
</svg>
